<mxfile host="app.diagrams.net" modified="2023-05-28T09:10:45.735Z" agent="Mozilla/5.0 (Windows NT 10.0; Win64; x64) AppleWebKit/537.36 (KHTML, like Gecko) Chrome/113.0.0.0 Safari/537.36" etag="vcljcYIv9sgBV_6gO11D" version="21.1.5" type="device">
  <diagram name="Trang-1" id="brxmY9dqzpnlz89e4Fkg">
    <mxGraphModel dx="1434" dy="788" grid="1" gridSize="10" guides="1" tooltips="1" connect="1" arrows="1" fold="1" page="1" pageScale="1" pageWidth="827" pageHeight="1169" math="0" shadow="0">
      <root>
        <mxCell id="0" />
        <mxCell id="1" parent="0" />
        <mxCell id="wCDzZwPg4xLmycZZ2NGB-1" value="" style="whiteSpace=wrap;html=1;aspect=fixed;" vertex="1" parent="1">
          <mxGeometry x="270" y="50" width="600" height="600" as="geometry" />
        </mxCell>
        <mxCell id="wCDzZwPg4xLmycZZ2NGB-9" style="edgeStyle=orthogonalEdgeStyle;rounded=0;orthogonalLoop=1;jettySize=auto;html=1;entryX=0;entryY=0.5;entryDx=0;entryDy=0;" edge="1" parent="1" source="wCDzZwPg4xLmycZZ2NGB-2" target="wCDzZwPg4xLmycZZ2NGB-4">
          <mxGeometry relative="1" as="geometry" />
        </mxCell>
        <mxCell id="wCDzZwPg4xLmycZZ2NGB-12" style="edgeStyle=orthogonalEdgeStyle;rounded=0;orthogonalLoop=1;jettySize=auto;html=1;entryX=0;entryY=0.5;entryDx=0;entryDy=0;" edge="1" parent="1" source="wCDzZwPg4xLmycZZ2NGB-2" target="wCDzZwPg4xLmycZZ2NGB-8">
          <mxGeometry relative="1" as="geometry" />
        </mxCell>
        <mxCell id="wCDzZwPg4xLmycZZ2NGB-16" style="edgeStyle=orthogonalEdgeStyle;rounded=0;orthogonalLoop=1;jettySize=auto;html=1;entryX=0;entryY=0.5;entryDx=0;entryDy=0;" edge="1" parent="1" source="wCDzZwPg4xLmycZZ2NGB-2" target="wCDzZwPg4xLmycZZ2NGB-15">
          <mxGeometry relative="1" as="geometry" />
        </mxCell>
        <mxCell id="wCDzZwPg4xLmycZZ2NGB-2" value="Người dùng" style="shape=umlActor;verticalLabelPosition=bottom;verticalAlign=top;html=1;outlineConnect=0;" vertex="1" parent="1">
          <mxGeometry x="100" y="130" width="30" height="60" as="geometry" />
        </mxCell>
        <mxCell id="wCDzZwPg4xLmycZZ2NGB-18" style="edgeStyle=orthogonalEdgeStyle;rounded=0;orthogonalLoop=1;jettySize=auto;html=1;" edge="1" parent="1" source="wCDzZwPg4xLmycZZ2NGB-3" target="wCDzZwPg4xLmycZZ2NGB-2">
          <mxGeometry relative="1" as="geometry" />
        </mxCell>
        <mxCell id="wCDzZwPg4xLmycZZ2NGB-19" style="edgeStyle=orthogonalEdgeStyle;rounded=0;orthogonalLoop=1;jettySize=auto;html=1;entryX=0;entryY=0.5;entryDx=0;entryDy=0;" edge="1" parent="1" source="wCDzZwPg4xLmycZZ2NGB-3" target="wCDzZwPg4xLmycZZ2NGB-7">
          <mxGeometry relative="1" as="geometry" />
        </mxCell>
        <mxCell id="wCDzZwPg4xLmycZZ2NGB-22" style="edgeStyle=orthogonalEdgeStyle;rounded=0;orthogonalLoop=1;jettySize=auto;html=1;entryX=0;entryY=0.5;entryDx=0;entryDy=0;" edge="1" parent="1" source="wCDzZwPg4xLmycZZ2NGB-3" target="wCDzZwPg4xLmycZZ2NGB-21">
          <mxGeometry relative="1" as="geometry" />
        </mxCell>
        <mxCell id="wCDzZwPg4xLmycZZ2NGB-3" value="Cộng tác viên" style="shape=umlActor;verticalLabelPosition=bottom;verticalAlign=top;html=1;outlineConnect=0;" vertex="1" parent="1">
          <mxGeometry x="100" y="410" width="30" height="60" as="geometry" />
        </mxCell>
        <mxCell id="wCDzZwPg4xLmycZZ2NGB-4" value="Đăng nhập" style="ellipse;whiteSpace=wrap;html=1;aspect=fixed;" vertex="1" parent="1">
          <mxGeometry x="500" y="80" width="80" height="80" as="geometry" />
        </mxCell>
        <mxCell id="wCDzZwPg4xLmycZZ2NGB-7" value="Đăng bài" style="ellipse;whiteSpace=wrap;html=1;aspect=fixed;" vertex="1" parent="1">
          <mxGeometry x="400" y="350" width="80" height="80" as="geometry" />
        </mxCell>
        <mxCell id="wCDzZwPg4xLmycZZ2NGB-14" style="edgeStyle=orthogonalEdgeStyle;rounded=0;orthogonalLoop=1;jettySize=auto;html=1;entryX=0;entryY=0.5;entryDx=0;entryDy=0;" edge="1" parent="1" source="wCDzZwPg4xLmycZZ2NGB-8" target="wCDzZwPg4xLmycZZ2NGB-13">
          <mxGeometry relative="1" as="geometry" />
        </mxCell>
        <mxCell id="wCDzZwPg4xLmycZZ2NGB-8" value="Mua hàng" style="ellipse;whiteSpace=wrap;html=1;aspect=fixed;" vertex="1" parent="1">
          <mxGeometry x="500" y="170" width="80" height="80" as="geometry" />
        </mxCell>
        <mxCell id="wCDzZwPg4xLmycZZ2NGB-13" value="Thanh toán" style="ellipse;whiteSpace=wrap;html=1;aspect=fixed;" vertex="1" parent="1">
          <mxGeometry x="650" y="170" width="80" height="80" as="geometry" />
        </mxCell>
        <mxCell id="wCDzZwPg4xLmycZZ2NGB-15" value="Đánh giá sản phẩm" style="ellipse;whiteSpace=wrap;html=1;aspect=fixed;" vertex="1" parent="1">
          <mxGeometry x="510" y="260" width="80" height="80" as="geometry" />
        </mxCell>
        <mxCell id="wCDzZwPg4xLmycZZ2NGB-21" value="Thêm sản phẩm" style="ellipse;whiteSpace=wrap;html=1;aspect=fixed;" vertex="1" parent="1">
          <mxGeometry x="400" y="450" width="80" height="80" as="geometry" />
        </mxCell>
      </root>
    </mxGraphModel>
  </diagram>
</mxfile>
